<?xml version="1.0" encoding="UTF-8"?>
<svg width="743px" height="135px" viewBox="0 0 743 135" version="1.1" xmlns="http://www.w3.org/2000/svg" xmlns:xlink="http://www.w3.org/1999/xlink">
    <!-- Generator: Sketch 42 (36781) - http://www.bohemiancoding.com/sketch -->
    <title>runara-wht</title>
    <desc>Created with Sketch.</desc>
    <defs></defs>
    <g id="Symbols" stroke="none" stroke-width="1" fill="none" fill-rule="evenodd">
        <g id="Bienestar_Mes" transform="translate(-115.000000, -26.000000)" fill-rule="nonzero" fill="#FFFFFF">
            <g id="runara-wht" transform="translate(115.000000, 26.000000)">
                <g id="Group">
                    <path d="M163.972414,134.203774 C127.591034,134.203774 101.201724,114.445283 101.201724,74.6716981 L101.201724,5.13207547 L127.591034,5.13207547 L127.591034,74.6716981 C127.591034,99.0490566 144.244483,114.445283 163.972414,114.445283 C183.700345,114.445283 200.353793,99.0490566 200.353793,74.6716981 L200.353793,5.13207547 L226.743103,5.13207547 L226.743103,74.6716981 C226.743103,114.445283 200.353793,134.203774 163.972414,134.203774" id="Shape"></path>
                    <path d="M307.704483,0 C344.085862,0 370.475172,19.7584906 370.475172,59.5320755 L370.475172,129.071698 L344.085862,129.071698 L344.085862,59.5320755 C344.085862,35.154717 327.432414,19.7584906 307.704483,19.7584906 C287.976552,19.7584906 271.323103,35.154717 271.323103,59.5320755 L271.323103,129.071698 L244.933793,129.071698 L244.933793,59.5320755 C244.933793,19.7584906 271.323103,0 307.704483,0" id="Shape"></path>
                    <path d="M513.182414,62.0981132 C513.182414,22.3245283 486.793103,2.56603774 450.411724,2.56603774 C414.030345,2.56603774 387.641034,22.3245283 387.641034,62.0981132 L387.641034,68.7698113 C387.641034,108.543396 414.030345,128.301887 450.411724,128.301887 C464.246897,128.301887 476.801034,125.479245 486.793103,119.577358 L486.793103,129.071698 L513.182414,129.071698 L513.182414,68.7698113 L513.182414,68.7698113 L513.182414,62.0981132 Z M450.411724,108.543396 C430.683793,108.543396 414.030345,93.1471698 414.030345,68.7698113 L414.030345,62.0981132 C414.030345,37.7207547 430.683793,22.3245283 450.411724,22.3245283 C470.139655,22.3245283 486.793103,37.7207547 486.793103,62.0981132 L486.793103,68.7698113 C486.793103,93.1471698 470.139655,108.543396 450.411724,108.543396 L450.411724,108.543396 Z" id="Shape"></path>
                    <path d="M742.487586,62.0981132 C742.487586,22.3245283 715.842069,2.56603774 679.46069,2.56603774 C643.07931,2.56603774 616.69,22.3245283 616.69,62.0981132 L616.69,68.7698113 C616.69,108.543396 643.07931,128.301887 679.46069,128.301887 C693.295862,128.301887 705.85,125.479245 715.842069,119.577358 L715.842069,129.071698 L742.231379,129.071698 L742.231379,68.7698113 L742.231379,68.7698113 L742.231379,62.0981132 L742.487586,62.0981132 Z M679.46069,108.543396 C659.732759,108.543396 643.07931,93.1471698 643.07931,68.7698113 L643.07931,62.0981132 C643.07931,37.7207547 659.732759,22.3245283 679.46069,22.3245283 C699.188621,22.3245283 715.842069,37.7207547 715.842069,62.0981132 L715.842069,68.7698113 C715.842069,93.1471698 699.444828,108.543396 679.46069,108.543396 L679.46069,108.543396 Z" id="Shape"></path>
                    <path d="M62.7706897,0 C26.3893103,0 0,19.7584906 0,59.5320755 L0,129.071698 L26.3893103,129.071698 L26.3893103,59.5320755 C26.3893103,35.154717 40.9931034,22.3245283 61.4896552,21.554717 C67.1262069,21.2981132 74.0437931,21.554717 78.9117241,23.6075472 L78.9117241,1.53962264 C73.7875862,0.513207547 68.4072414,0 62.7706897,0" id="Shape"></path>
                    <path d="M596.705862,0 C560.324483,0 533.935172,19.7584906 533.935172,59.5320755 L533.935172,129.071698 L560.324483,129.071698 L560.324483,59.5320755 C560.324483,35.154717 574.928276,22.3245283 595.424828,21.554717 C601.061379,21.2981132 607.978966,21.554717 612.846897,23.6075472 L612.846897,1.53962264 C607.722759,0.513207547 602.342414,0 596.705862,0" id="Shape"></path>
                </g>
            </g>
        </g>
    </g>
</svg>